<?xml version='1.0' encoding='iso-8859-1'?>
<svg version="1.1" xmlns="http://www.w3.org/2000/svg" viewBox="0 0 463 463" xmlns:xlink="http://www.w3.org/1999/xlink" enable-background="new 0 0 463 463">
  <g>
    <path d="m95.5,320c-12.958,0-23.5,10.542-23.5,23.5s10.542,23.5 23.5,23.5 23.5-10.542 23.5-23.5-10.542-23.5-23.5-23.5zm0,32c-4.687,0-8.5-3.813-8.5-8.5s3.813-8.5 8.5-8.5 8.5,3.813 8.5,8.5-3.813,8.5-8.5,8.5z"/>
    <path d="m287.5,320c-12.958,0-23.5,10.542-23.5,23.5s10.542,23.5 23.5,23.5 23.5-10.542 23.5-23.5-10.542-23.5-23.5-23.5zm0,32c-4.687,0-8.5-3.813-8.5-8.5s3.813-8.5 8.5-8.5 8.5,3.813 8.5,8.5-3.813,8.5-8.5,8.5z"/>
    <path d="m455.5,352h-0.5v-96.5c0-4.142-3.358-7.5-7.5-7.5h-8.5v-56.5c0-4.142-3.358-7.5-7.5-7.5h-56.5v-8.5c0-4.142-3.358-7.5-7.5-7.5s-7.5,3.358-7.5,7.5v16.5h-17v-120.5c0-4.142-3.358-7.5-7.5-7.5s-7.5,3.358-7.5,7.5v234.11c-4.554-4.864-9.966-8.911-16-11.893l7.9-23.701c0.629-1.887 0.482-3.947-0.407-5.726-0.89-1.779-2.449-3.132-4.336-3.761-4.201-1.4-8.466-2.464-12.766-3.217-3.612-29.179-16.626-65.557-33.962-94.423-22.804-37.975-50.125-58.889-76.929-58.889h-104c-12.958,0-23.5,10.542-23.5,23.5v96.5h-48.5c-8.547,0-15.5,6.953-15.5,15.5v88c0,17.369 14.131,31.5 31.5,31.5h10.719c6.726,23.081 28.058,40 53.281,40s46.555-16.919 53.281-40h85.438c6.726,23.081 28.058,40 53.281,40 28.058,0 51.305-20.933 54.979-48h17.521v8.5c0,4.142 3.358,7.5 7.5,7.5h88c4.142,0 7.5-3.358 7.5-7.5s-3.358-7.5-7.5-7.5zm-31.5-153v49h-49v-49h49zm-177,32.5c0-9.098 7.402-16.5 16.5-16.5h12.953c5.082,14.128 8.784,28.248 10.633,41.006-14.267,0.065-27.923,3.497-40.086,9.848v-34.354zm-159.5-112.5h104c28.779,0 52.495,32.336 64.07,51.611 5.517,9.187 10.564,19.161 14.963,29.389h-7.033c-5.972,0-11.561,1.671-16.325,4.569l-13.069-13.069 6.697-6.697c2.929-2.929 2.929-7.678 0-10.606-2.929-2.929-7.678-2.929-10.606,0l-24,24c-2.929,2.929-2.929,7.678 0,10.606 1.464,1.464 3.384,2.197 5.303,2.197s3.839-0.732 5.303-2.197l6.697-6.697 13.069,13.069c-2.898,4.764-4.569,10.353-4.569,16.325v44.296c-4.388,3.619-8.46,7.696-12.152,12.204h-12.848v-8.5c0-12.958-10.542-23.5-23.5-23.5h-48c-13.509,0-24.5-10.991-24.5-24.5v-40c0-12.958-10.542-23.5-23.5-23.5-2.997,0-5.862,0.57-8.5,1.597v-42.097c0-4.687 3.813-8.5 8.5-8.5zm-8.5,72.5c0-4.687 3.813-8.5 8.5-8.5s8.5,3.813 8.5,8.5v32.5h-17v-32.5zm-64,79.5h17v16.5c0,4.687-3.813,8.5-8.5,8.5h-8.5v-25zm80.5,113c-22.332,0-40.5-18.168-40.5-40.5s18.168-40.5 40.5-40.5 40.5,18.168 40.5,40.5-18.168,40.5-40.5,40.5zm55.487-40c0.001-0.167 0.013-0.332 0.013-0.5 0-30.603-24.897-55.5-55.5-55.5s-55.5,24.897-55.5,55.5c0,0.168 0.011,0.333 0.013,0.5h-8.513c-9.098,0-16.5-7.402-16.5-16.5v-16.5h8.5c12.958,0 23.5-10.542 23.5-23.5v-24c0-4.142-3.358-7.5-7.5-7.5h-24.5v-16.5c0-0.276 0.224-0.5 0.5-0.5h81.214c3.513,18.207 19.568,32 38.786,32h48c4.687,0 8.5,3.813 8.5,8.5v16c0,1.989 0.79,3.897 2.197,5.303 1.407,1.407 3.314,2.197 5.303,2.197h23.995c2.359,0 4.58-1.11 5.997-2.996 4.07-5.419 8.775-10.152 13.969-14.143 0.391-0.244 0.756-0.522 1.094-0.831 12.269-9.061 27.165-14.03 42.945-14.03 5.254,0 10.502,0.586 15.679,1.746l-5.407,16.222c-3.332-0.626-6.762-0.968-10.272-0.968-30.603,0-55.5,24.897-55.5,55.5 0,0.168 0.011,0.333 0.013,0.5h-81.026zm136.513,40c-22.332,0-40.5-18.168-40.5-40.5s18.168-40.5 40.5-40.5 40.5,18.168 40.5,40.5-18.168,40.5-40.5,40.5zm55.5-48v-129h17v129h-17zm32-73h65v89h-65v-89z"/>
  </g>
</svg>
