<?xml version='1.0' encoding='iso-8859-1'?>
<svg version="1.1" xmlns="http://www.w3.org/2000/svg" viewBox="0 0 462.953 462.953" xmlns:xlink="http://www.w3.org/1999/xlink" enable-background="new 0 0 462.953 462.953">
  <g>
    <path d="m231.476,0c-96.771,0-175.5,78.729-175.5,175.5 0,44.567 21.432,99.398 63.7,162.971 33.948,51.059 72.847,94.796 93.013,116.323 4.857,5.185 11.705,8.159 18.787,8.159s13.93-2.974 18.787-8.159c20.166-21.527 59.064-65.264 93.013-116.323 42.269-63.573 63.7-118.404 63.7-162.971-5.68434e-14-96.771-78.728-175.5-175.5-175.5zm99.309,330.166c-33.347,50.155-71.621,93.186-91.469,114.373-2.063,2.202-4.847,3.414-7.84,3.414s-5.777-1.212-7.84-3.414c-19.848-21.187-58.122-64.218-91.469-114.373-40.603-61.069-61.191-113.106-61.191-154.666 0-88.5 72-160.5 160.5-160.5s160.5,72 160.5,160.5c0,41.56-20.588,93.597-61.191,154.666z"/>
    <path d="m318.976,183.5v-48.5h0.5c4.143,0 7.5-3.358 7.5-7.5s-3.357-7.5-7.5-7.5h-155.329l-2.097-7.131c-2.922-9.932-12.193-16.869-22.545-16.869h-12.028c-4.143,0-7.5,3.358-7.5,7.5s3.357,7.5 7.5,7.5h12.028c3.744,0 7.098,2.509 8.154,6.102l29.866,101.544c0.577,1.962 1.307,3.852 2.164,5.664-11.163,1.817-19.713,11.522-19.713,23.191 0,12.958 10.542,23.5 23.5,23.5s23.5-10.542 23.5-23.5c0-0.485-0.02-0.966-0.049-1.445 2.754,0.615 5.597,0.945 8.492,0.945h64.569c-0.004,0.167-0.013,0.332-0.013,0.5 0,12.958 10.542,23.5 23.5,23.5s23.5-10.542 23.5-23.5-10.542-23.5-23.5-23.5c-7.023,0-13.332,3.101-17.641,8h-70.414c-10.794,0-20.459-7.232-23.504-17.587l-2.18-7.413h105.741c12.957-0.001 23.499-10.543 23.499-23.501zm-15.5,55.5c4.687,0 8.5,3.813 8.5,8.5s-3.813,8.5-8.5,8.5-8.5-3.813-8.5-8.5 3.814-8.5 8.5-8.5zm-120,17c-4.687,0-8.5-3.813-8.5-8.5s3.813-8.5 8.5-8.5 8.5,3.813 8.5,8.5-3.813,8.5-8.5,8.5zm-14.917-121h135.417v48.5c0,4.687-3.813,8.5-8.5,8.5h-110.152l-16.765-57z"/>
  </g>
</svg>
