<?xml version="1.0" encoding="iso-8859-1"?>
<!-- Generator: Adobe Illustrator 16.0.0, SVG Export Plug-In . SVG Version: 6.00 Build 0)  -->
<!DOCTYPE svg PUBLIC "-//W3C//DTD SVG 1.1//EN" "http://www.w3.org/Graphics/SVG/1.1/DTD/svg11.dtd">
<svg version="1.1" id="Capa_1" xmlns="http://www.w3.org/2000/svg" xmlns:xlink="http://www.w3.org/1999/xlink" x="0px" y="0px"
	 width="612.002px" height="612.002px" viewBox="0 0 612.002 612.002" style="enable-background:new 0 0 612.002 612.002;"
	 xml:space="preserve">
<g>
	<path d="M610.951,235.412c-1.655-5.08-7.78-16.867-28.886-16.867H401.406c-5.545,0-12.919-5.4-14.632-10.712L330.948,36.086
		c-6.532-20.031-19.625-22.208-24.967-22.208s-18.405,2.177-24.966,22.237L225.188,207.92c-1.713,5.255-9.086,10.625-14.631,10.625
		H29.927c-21.105,0-27.231,11.757-28.886,16.838c-1.625,5.051-3.629,18.173,13.441,30.627l146.141,106.195
		c4.5,3.251,7.316,11.961,5.574,17.273l-55.826,171.775c-3.658,11.322-2.903,20.67,2.293,27.782
		c7.867,10.858,23.138,12.426,38.118,1.539l146.024-106.137c4.239-3.049,14.109-3.02,18.174-0.059l146.17,106.195
		c6.997,5.08,13.528,7.548,19.974,7.548c7.345,0,13.964-3.31,18.145-9.115c5.196-7.142,5.951-16.49,2.235-27.783l-55.798-171.718
		c-1.741-5.312,1.104-14.051,5.574-17.302L597.422,266.04C614.58,253.586,612.605,240.464,610.951,235.412z M429.856,342.595
		c-17.419,12.657-25.519,37.652-18.87,58.178l45.84,141.38l-120.362-87.44c-8.36-6.01-19.189-9.319-30.482-9.319
		s-22.121,3.31-30.569,9.348l-120.362,87.354l45.928-141.294c6.618-20.176-1.685-45.781-18.87-58.235L61.918,255.125h148.639
		c21.599,0,42.85-15.474,49.439-35.969L306.04,77.774l45.927,141.323c6.619,20.525,27.869,35.998,49.439,35.998l148.667,0.116
		L429.856,342.595z"/>
</g>
<g>
</g>
<g>
</g>
<g>
</g>
<g>
</g>
<g>
</g>
<g>
</g>
<g>
</g>
<g>
</g>
<g>
</g>
<g>
</g>
<g>
</g>
<g>
</g>
<g>
</g>
<g>
</g>
<g>
</g>
</svg>
